HIERARCHY
ROOT mixamorig:Hips
{
	OFFSET -0.000008 104.274872 1.554316
	CHANNELS 6 Xposition Yposition Zposition Xrotation Yrotation Zrotation
	JOINT mixamorig:Spine
	{
		OFFSET -0.000005 10.181595 0.131519
		CHANNELS 6 Xposition Yposition Zposition Xrotation Yrotation Zrotation
		JOINT mixamorig:Spine1
		{
			OFFSET -0.000000 9.893959 -1.470707
			CHANNELS 6 Xposition Yposition Zposition Xrotation Yrotation Zrotation
			JOINT mixamorig:Spine2
			{
				OFFSET -0.000000 9.220757 -1.370641
				CHANNELS 6 Xposition Yposition Zposition Xrotation Yrotation Zrotation
				JOINT mixamorig:Neck
				{
					OFFSET 0.000001 16.740417 -2.049036
					CHANNELS 6 Xposition Yposition Zposition Xrotation Yrotation Zrotation
					JOINT mixamorig:Head
					{
						OFFSET 0.000000 9.617874 1.685006
						CHANNELS 6 Xposition Yposition Zposition Xrotation Yrotation Zrotation
						JOINT mixamorig:HeadTop_End
						{
							OFFSET 0.000002 22.037354 7.501101
							CHANNELS 6 Xposition Yposition Zposition Xrotation Yrotation Zrotation
							End Site
							{
								OFFSET 0.000168 2310.654297 -282.823242
							}
						}
					}
				}
				JOINT mixamorig:RightShoulder
				{
					OFFSET -4.569970 11.014908 -2.160885
					CHANNELS 6 Xposition Yposition Zposition Xrotation Yrotation Zrotation
					JOINT mixamorig:RightArm
					{
						OFFSET -10.592851 -0.524811 -2.232101
						CHANNELS 6 Xposition Yposition Zposition Xrotation Yrotation Zrotation
						JOINT mixamorig:RightForeArm
						{
							OFFSET -27.841511 0.000031 -0.000004
							CHANNELS 6 Xposition Yposition Zposition Xrotation Yrotation Zrotation
							JOINT mixamorig:RightHand
							{
								OFFSET -28.328831 -0.000015 0.000015
								CHANNELS 6 Xposition Yposition Zposition Xrotation Yrotation Zrotation
								JOINT mixamorig:RightHandThumb1
								{
									OFFSET -2.464806 -1.573990 2.681852
									CHANNELS 6 Xposition Yposition Zposition Xrotation Yrotation Zrotation
									JOINT mixamorig:RightHandThumb2
									{
										OFFSET -3.215179 -1.872803 1.924282
										CHANNELS 6 Xposition Yposition Zposition Xrotation Yrotation Zrotation
										JOINT mixamorig:RightHandThumb3
										{
											OFFSET -2.654831 -1.527969 1.512609
											CHANNELS 6 Xposition Yposition Zposition Xrotation Yrotation Zrotation
											JOINT mixamorig:RightHandThumb4
											{
												OFFSET -2.018814 -1.152008 1.108052
												CHANNELS 6 Xposition Yposition Zposition Xrotation Yrotation Zrotation
												End Site
												{
													OFFSET -188.809540 -114.533607 132.431396
												}
											}
										}
									}
								}
								JOINT mixamorig:RightHandIndex1
								{
									OFFSET -9.108284 -0.517868 2.259835
									CHANNELS 6 Xposition Yposition Zposition Xrotation Yrotation Zrotation
									JOINT mixamorig:RightHandIndex2
									{
										OFFSET -3.699989 0.000000 0.001215
										CHANNELS 6 Xposition Yposition Zposition Xrotation Yrotation Zrotation
										JOINT mixamorig:RightHandIndex3
										{
											OFFSET -2.850006 0.000031 -0.000522
											CHANNELS 6 Xposition Yposition Zposition Xrotation Yrotation Zrotation
											JOINT mixamorig:RightHandIndex4
											{
												OFFSET -2.772186 -0.000015 -0.000020
												CHANNELS 6 Xposition Yposition Zposition Xrotation Yrotation Zrotation
												End Site
												{
													OFFSET -277.218445 0.000000 -0.050231
												}
											}
										}
									}
								}
								JOINT mixamorig:RightHandMiddle1
								{
									OFFSET -9.532516 -0.000031 -0.000023
									CHANNELS 6 Xposition Yposition Zposition Xrotation Yrotation Zrotation
									JOINT mixamorig:RightHandMiddle2
									{
										OFFSET -3.700005 -0.000015 0.003713
										CHANNELS 6 Xposition Yposition Zposition Xrotation Yrotation Zrotation
										JOINT mixamorig:RightHandMiddle3
										{
											OFFSET -2.949974 0.000015 -0.002054
											CHANNELS 6 Xposition Yposition Zposition Xrotation Yrotation Zrotation
											JOINT mixamorig:RightHandMiddle4
											{
												OFFSET -2.946640 0.000000 -0.000156
												CHANNELS 6 Xposition Yposition Zposition Xrotation Yrotation Zrotation
												End Site
												{
													OFFSET -294.664337 0.000000 -0.113670
												}
											}
										}
									}
								}
								JOINT mixamorig:RightHandRing1
								{
									OFFSET -9.103600 -0.043076 -1.865134
									CHANNELS 6 Xposition Yposition Zposition Xrotation Yrotation Zrotation
									JOINT mixamorig:RightHandRing2
									{
										OFFSET -3.379288 0.000000 -0.001055
										CHANNELS 6 Xposition Yposition Zposition Xrotation Yrotation Zrotation
										JOINT mixamorig:RightHandRing3
										{
											OFFSET -2.889687 -0.000015 0.000379
											CHANNELS 6 Xposition Yposition Zposition Xrotation Yrotation Zrotation
											JOINT mixamorig:RightHandRing4
											{
												OFFSET -2.638809 -0.000015 0.000941
												CHANNELS 6 Xposition Yposition Zposition Xrotation Yrotation Zrotation
												End Site
												{
													OFFSET -263.880371 0.000000 0.516020
												}
											}
										}
									}
								}
								JOINT mixamorig:RightHandPinky1
								{
									OFFSET -8.076683 -0.486710 -3.806280
									CHANNELS 6 Xposition Yposition Zposition Xrotation Yrotation Zrotation
									JOINT mixamorig:RightHandPinky2
									{
										OFFSET -3.600014 -0.000015 -0.003747
										CHANNELS 6 Xposition Yposition Zposition Xrotation Yrotation Zrotation
										JOINT mixamorig:RightHandPinky3
										{
											OFFSET -2.099983 0.000000 -0.005739
											CHANNELS 6 Xposition Yposition Zposition Xrotation Yrotation Zrotation
											JOINT mixamorig:RightHandPinky4
											{
												OFFSET -2.115768 -0.000031 -0.003680
												CHANNELS 6 Xposition Yposition Zposition Xrotation Yrotation Zrotation
												End Site
												{
													OFFSET -211.577087 0.000000 -0.350686
												}
											}
										}
									}
								}
							}
						}
					}
				}
				JOINT mixamorig:LeftShoulder
				{
					OFFSET 4.570447 11.014725 -2.160855
					CHANNELS 6 Xposition Yposition Zposition Xrotation Yrotation Zrotation
					JOINT mixamorig:LeftArm
					{
						OFFSET 10.592371 -0.524597 -2.232119
						CHANNELS 6 Xposition Yposition Zposition Xrotation Yrotation Zrotation
						JOINT mixamorig:LeftForeArm
						{
							OFFSET 27.841532 -0.000031 0.000026
							CHANNELS 6 Xposition Yposition Zposition Xrotation Yrotation Zrotation
							JOINT mixamorig:LeftHand
							{
								OFFSET 28.328846 -0.000061 0.000022
								CHANNELS 6 Xposition Yposition Zposition Xrotation Yrotation Zrotation
								JOINT mixamorig:LeftHandThumb1
								{
									OFFSET 2.466141 -1.576172 2.681732
									CHANNELS 6 Xposition Yposition Zposition Xrotation Yrotation Zrotation
									JOINT mixamorig:LeftHandThumb2
									{
										OFFSET 3.217812 -1.872070 1.916482
										CHANNELS 6 Xposition Yposition Zposition Xrotation Yrotation Zrotation
										JOINT mixamorig:LeftHandThumb3
										{
											OFFSET 2.656029 -1.528778 1.514513
											CHANNELS 6 Xposition Yposition Zposition Xrotation Yrotation Zrotation
											JOINT mixamorig:LeftHandThumb4
											{
												OFFSET 2.020889 -1.154053 1.115139
												CHANNELS 6 Xposition Yposition Zposition Xrotation Yrotation Zrotation
												End Site
												{
													OFFSET 190.885437 -115.081749 130.048782
												}
											}
										}
									}
								}
								JOINT mixamorig:LeftHandIndex1
								{
									OFFSET 9.109314 -0.518021 2.259871
									CHANNELS 6 Xposition Yposition Zposition Xrotation Yrotation Zrotation
									JOINT mixamorig:LeftHandIndex2
									{
										OFFSET 3.699989 0.000000 -0.000322
										CHANNELS 6 Xposition Yposition Zposition Xrotation Yrotation Zrotation
										JOINT mixamorig:LeftHandIndex3
										{
											OFFSET 2.850006 0.000000 0.000352
											CHANNELS 6 Xposition Yposition Zposition Xrotation Yrotation Zrotation
											JOINT mixamorig:LeftHandIndex4
											{
												OFFSET 2.774864 -0.000031 -0.000027
												CHANNELS 6 Xposition Yposition Zposition Xrotation Yrotation Zrotation
												End Site
												{
													OFFSET 277.486267 0.000000 -0.009857
												}
											}
										}
									}
								}
								JOINT mixamorig:LeftHandMiddle1
								{
									OFFSET 9.533394 0.000061 0.000044
									CHANNELS 6 Xposition Yposition Zposition Xrotation Yrotation Zrotation
									JOINT mixamorig:LeftHandMiddle2
									{
										OFFSET 3.699989 -0.000015 -0.000231
										CHANNELS 6 Xposition Yposition Zposition Xrotation Yrotation Zrotation
										JOINT mixamorig:LeftHandMiddle3
										{
											OFFSET 2.949997 -0.000015 -0.000059
											CHANNELS 6 Xposition Yposition Zposition Xrotation Yrotation Zrotation
											JOINT mixamorig:LeftHandMiddle4
											{
												OFFSET 2.952896 0.000031 0.000063
												CHANNELS 6 Xposition Yposition Zposition Xrotation Yrotation Zrotation
												End Site
												{
													OFFSET 295.289337 0.000000 0.022810
												}
											}
										}
									}
								}
								JOINT mixamorig:LeftHandRing1
								{
									OFFSET 9.104523 -0.042999 -1.865074
									CHANNELS 6 Xposition Yposition Zposition Xrotation Yrotation Zrotation
									JOINT mixamorig:LeftHandRing2
									{
										OFFSET 3.150009 -0.000031 0.000043
										CHANNELS 6 Xposition Yposition Zposition Xrotation Yrotation Zrotation
										JOINT mixamorig:LeftHandRing3
										{
											OFFSET 2.949982 -0.000015 0.000040
											CHANNELS 6 Xposition Yposition Zposition Xrotation Yrotation Zrotation
											JOINT mixamorig:LeftHandRing4
											{
												OFFSET 2.644348 0.000000 0.000057
												CHANNELS 6 Xposition Yposition Zposition Xrotation Yrotation Zrotation
												End Site
												{
													OFFSET 264.434631 0.000000 0.012105
												}
											}
										}
									}
								}
								JOINT mixamorig:LeftHandPinky1
								{
									OFFSET 8.077789 -0.486847 -3.806259
									CHANNELS 6 Xposition Yposition Zposition Xrotation Yrotation Zrotation
									JOINT mixamorig:LeftHandPinky2
									{
										OFFSET 3.599953 0.000031 0.014727
										CHANNELS 6 Xposition Yposition Zposition Xrotation Yrotation Zrotation
										JOINT mixamorig:LeftHandPinky3
										{
											OFFSET 2.100021 0.000015 0.007705
											CHANNELS 6 Xposition Yposition Zposition Xrotation Yrotation Zrotation
											JOINT mixamorig:LeftHandPinky4
											{
												OFFSET 2.125504 0.000031 0.007517
												CHANNELS 6 Xposition Yposition Zposition Xrotation Yrotation Zrotation
												End Site
												{
													OFFSET 212.550781 0.000000 0.625752
												}
											}
										}
									}
								}
							}
						}
					}
				}
			}
		}
	}
	JOINT mixamorig:RightUpLeg
	{
		OFFSET -8.207787 -6.751648 -1.599560
		CHANNELS 6 Xposition Yposition Zposition Xrotation Yrotation Zrotation
		JOINT mixamorig:RightLeg
		{
			OFFSET -0.000002 -44.370117 0.345942
			CHANNELS 6 Xposition Yposition Zposition Xrotation Yrotation Zrotation
			JOINT mixamorig:RightFoot
			{
				OFFSET 0.000003 -44.423679 -3.043532
				CHANNELS 6 Xposition Yposition Zposition Xrotation Yrotation Zrotation
				JOINT mixamorig:RightToeBase
				{
					OFFSET -0.000002 -8.728671 10.710558
					CHANNELS 6 Xposition Yposition Zposition Xrotation Yrotation Zrotation
					JOINT mixamorig:RightToe_End
					{
						OFFSET -0.000001 -0.000679 9.278119
						CHANNELS 6 Xposition Yposition Zposition Xrotation Yrotation Zrotation
						End Site
						{
							OFFSET 0.000000 -0.067690 927.812134
						}
					}
				}
			}
		}
	}
	JOINT mixamorig:LeftUpLeg
	{
		OFFSET 8.207793 -6.751686 -1.599556
		CHANNELS 6 Xposition Yposition Zposition Xrotation Yrotation Zrotation
		JOINT mixamorig:LeftLeg
		{
			OFFSET -0.000004 -44.370014 0.346954
			CHANNELS 6 Xposition Yposition Zposition Xrotation Yrotation Zrotation
			JOINT mixamorig:LeftFoot
			{
				OFFSET -0.000001 -44.423672 -3.044401
				CHANNELS 6 Xposition Yposition Zposition Xrotation Yrotation Zrotation
				JOINT mixamorig:LeftToeBase
				{
					OFFSET -0.000002 -8.728669 10.710558
					CHANNELS 6 Xposition Yposition Zposition Xrotation Yrotation Zrotation
					JOINT mixamorig:LeftToe_End
					{
						OFFSET -0.000003 -0.000679 9.278133
						CHANNELS 6 Xposition Yposition Zposition Xrotation Yrotation Zrotation
						End Site
						{
							OFFSET 0.000000 -0.068021 927.813477
						}
					}
				}
			}
		}
	}
}
MOTION
Frames: 3
Frame Time: 0.033333
0.000006 104.270477 1.554256 0.000010 0.000003 -0.000113 -0.000005 10.181587 0.131522 0.000001 -0.000003 0.000084 -0.000000 9.893967 -1.470711 0.000001 0.000000 -0.000000 -0.000000 9.220802 -1.370642 0.000000 -0.000000 -0.000000 0.000001 16.740433 -2.049030 0.000000 -0.000000 -0.000000 0.000000 9.617859 1.685014 0.000000 0.000000 0.000000 0.000002 22.037384 7.501101 0.000000 -0.000000 0.000000 -4.569968 11.014880 -2.160881 0.000008 0.000001 -0.000038 -10.592751 -0.524838 -2.231716 81.728596 72.614842 -64.886544 -27.841496 0.000031 0.000587 60.020902 115.210907 -84.625258 -28.328833 0.000023 0.000033 -0.000324 -0.000045 0.000006 -2.464807 -1.574120 2.681956 144.025084 -180.306243 170.044950 -3.215116 -1.872984 1.924405 303.536557 -11.875454 -16.158945 -2.654769 -1.528256 1.512803 474.497668 196.234627 159.606085 -2.018831 -1.151989 1.108062 -0.000004 -0.000004 0.000004 -9.108322 -0.517976 2.260299 253.399636 11.392433 -344.717025 -3.700028 -0.000098 0.001699 249.185928 9.160360 -346.771054 -2.850026 -0.000083 -0.000052 247.705471 4.796046 7.143860 -2.772167 -0.000028 -0.000023 0.000000 0.000003 0.000002 -9.532531 -0.000183 0.000432 74.037256 171.810239 -169.025517 -3.700016 -0.000120 0.004176 252.012943 6.798470 9.250147 -2.950016 -0.000155 -0.001614 251.942210 5.258737 7.233737 -2.946618 0.000015 -0.000153 0.000000 0.000000 0.000000 -9.103620 -0.043221 -1.864695 77.782058 173.306064 -171.745189 -3.379289 -0.000175 -0.000606 256.641271 6.503822 8.240522 -2.889731 -0.000133 0.000843 256.203510 6.226692 7.981703 -2.638810 0.000016 0.000939 0.000001 -0.000001 0.000000 -8.076685 -0.486868 -3.805891 83.160640 172.811600 -172.019148 -3.600001 -0.000231 -0.003352 264.531669 2.080252 1.956024 -2.099987 -0.000227 -0.005369 263.385946 -0.015338 -0.243459 -2.115758 -0.000053 -0.003672 0.000002 0.000002 -0.000004 4.570446 11.014691 -2.160851 -0.000018 0.000010 -0.000021 10.592531 -0.524545 -2.232379 68.207567 -73.439171 53.595904 27.841726 -0.000057 -0.000091 55.295897 -110.236569 73.845178 28.328838 -0.000014 0.000024 0.000020 -0.000089 0.000001 2.466158 -1.576161 2.681832 142.004851 175.908257 -169.920271 3.217831 -1.871969 1.916583 119.277369 159.080529 -161.346444 2.656056 -1.528735 1.514602 -65.978671 21.014858 21.290762 2.020903 -1.154079 1.115150 -0.000001 -0.000000 0.000001 9.109266 -0.517789 2.260123 70.528861 -167.853183 162.896146 3.699928 0.000224 -0.000088 249.261661 -12.195072 -17.600211 2.849962 0.000253 0.000580 249.617405 -10.255299 -14.707619 2.774887 -0.000015 -0.000027 -0.000000 0.000001 -0.000000 9.533359 0.000280 0.000276 69.005381 -169.472634 -195.260000 3.699937 0.000248 0.000026 248.380922 -10.360681 -15.200050 2.949961 0.000235 0.000177 250.312144 -9.163395 -12.985913 2.952872 0.000000 0.000066 -0.000000 -0.000000 0.000000 9.104486 -0.042775 -1.864838 69.264231 -169.609771 164.999612 3.149951 0.000276 0.000300 249.569402 -9.606784 -13.797459 2.949942 0.000239 0.000282 253.843161 -8.280269 -11.006544 2.644318 0.000047 0.000056 -0.000000 0.000000 -0.000000 8.077724 -0.486640 -3.806008 -107.961686 -14.088892 -19.745401 3.599916 0.000276 0.014980 255.598082 -9.978693 -13.277969 2.099971 0.000242 0.007982 258.704234 -6.310968 -8.125389 2.125497 -0.000018 0.007511 -0.000002 -0.000002 -0.000000 -8.207786 -6.751667 -1.599560 -0.077001 -0.000003 0.000080 -0.000002 -44.370110 0.345938 0.153719 -0.000000 -0.000000 0.000000 -44.423679 -3.043532 -0.076700 0.000000 -0.000002 -0.000006 -8.728667 10.710559 -0.000009 -0.000000 -0.000000 -0.000001 -0.000679 9.278123 0.000000 -0.000000 -0.000000 8.207792 -6.751710 -1.599556 -0.074518 -0.000003 0.000081 -0.000002 -44.370014 0.346960 0.148822 0.000002 0.000000 -0.000001 -44.423664 -3.044403 -0.074314 0.000000 -0.000002 -0.000004 -8.728671 10.710558 0.000007 -0.000000 -0.000000 0.000000 -0.000680 9.278137 -0.000000 0.000000 -0.000001 
0.000006 104.270477 1.554256 0.000010 0.000003 -0.000113 -0.000005 10.181587 0.131522 0.000001 -0.000003 0.000084 -0.000000 9.893967 -1.470711 0.000001 0.000000 -0.000000 -0.000000 9.220802 -1.370642 0.000000 -0.000000 -0.000000 0.000001 16.740433 -2.049030 0.000000 -0.000000 -0.000000 0.000000 9.617859 1.685014 0.000000 0.000000 0.000000 0.000002 22.037384 7.501101 0.000000 -0.000000 0.000000 -4.569968 11.014880 -2.160881 0.000008 0.000001 -0.000038 -10.592747 -0.524840 -2.231716 80.696677 75.013454 -66.209764 -27.841490 0.000038 0.000582 61.372521 111.712757 -82.375715 -28.328835 0.000007 0.000020 -0.000321 -0.000044 0.000006 -2.464807 -1.574099 2.681924 144.455277 -180.192862 170.167552 -3.215113 -1.872976 1.924420 304.562424 -11.838927 -15.792743 -2.654764 -1.528245 1.512780 474.119985 197.788864 159.199429 -2.018838 -1.152029 1.108066 -0.000007 -0.000003 0.000004 -9.108318 -0.517971 2.260279 252.596679 10.113657 -346.220732 -3.700006 -0.000098 0.001652 250.149941 8.235193 -348.314731 -2.850033 -0.000093 -0.000028 250.301544 3.697568 5.248331 -2.772163 0.000001 -0.000017 -0.000000 0.000001 0.000000 -9.532517 -0.000177 0.000406 74.073791 174.003481 -171.923976 -3.700013 -0.000132 0.004179 252.295276 4.688916 6.316348 -2.950000 -0.000141 -0.001609 253.396029 3.877381 5.193236 -2.946624 0.000028 -0.000149 -0.000000 0.000000 -0.000001 -9.103620 -0.043191 -1.864698 76.171233 175.836691 -174.731101 -3.379279 -0.000184 -0.000633 254.828566 2.284538 3.005049 -2.889730 -0.000134 0.000839 254.731687 2.542344 3.379946 -2.638808 0.000015 0.000941 -0.000001 -0.000000 -0.000000 -8.076676 -0.486853 -3.805904 82.552754 176.216995 -175.819369 -3.599987 -0.000237 -0.003355 263.083833 -2.444567 -3.128290 -2.099970 -0.000247 -0.005380 262.552472 -4.033929 -4.839977 -2.115777 -0.000056 -0.003667 0.000001 -0.000001 -0.000003 4.570446 11.014691 -2.160851 -0.000018 0.000010 -0.000021 10.592535 -0.524572 -2.232373 71.769012 -76.660807 59.537816 27.841717 -0.000075 -0.000083 60.006067 -109.245242 78.235391 28.328840 -0.000028 0.000024 0.000022 -0.000089 -0.000000 2.466167 -1.576149 2.681852 142.174909 180.545983 -169.551919 3.217840 -1.871989 1.916559 118.742921 161.596183 -161.401277 2.656071 -1.528741 1.514592 -66.966808 19.249452 21.423163 2.020887 -1.154068 1.115145 0.000002 0.000002 0.000004 9.109262 -0.517808 2.260107 70.288118 -166.585063 161.041449 3.699953 0.000234 -0.000078 250.566774 -13.160254 -18.532043 2.849951 0.000238 0.000575 250.690783 -11.049946 -15.531654 2.774880 -0.000029 -0.000027 0.000000 0.000000 -0.000000 9.533345 0.000278 0.000283 69.816978 -167.930965 -197.220701 3.699961 0.000216 0.000015 249.785947 -11.309490 -16.158435 2.949960 0.000226 0.000168 251.883443 -9.627528 -13.254221 2.952872 -0.000016 0.000064 0.000000 0.000001 0.000000 9.104479 -0.042799 -1.864829 70.635023 -168.297350 163.537268 3.149957 0.000272 0.000278 250.831758 -10.488228 -14.711404 2.949951 0.000246 0.000304 255.330011 -8.698518 -11.255735 2.644317 0.000015 0.000056 -0.000001 0.000001 0.000000 8.077701 -0.486648 -3.806011 -107.821776 -15.689204 -21.835514 3.599917 0.000264 0.014982 254.814468 -10.976270 -14.749906 2.099953 0.000256 0.007966 258.250026 -6.815525 -8.805283 2.125501 -0.000032 0.007510 -0.000001 -0.000001 -0.000002 -8.207786 -6.751667 -1.599560 -0.077001 -0.000003 0.000080 -0.000002 -44.370110 0.345938 0.153719 -0.000000 -0.000000 0.000000 -44.423679 -3.043532 -0.076700 0.000000 -0.000002 -0.000006 -8.728667 10.710559 -0.000009 -0.000000 -0.000000 -0.000001 -0.000679 9.278123 0.000000 -0.000000 -0.000000 8.207792 -6.751710 -1.599556 -0.074518 -0.000003 0.000081 -0.000002 -44.370014 0.346960 0.148822 0.000002 0.000000 -0.000001 -44.423664 -3.044403 -0.074314 0.000000 -0.000002 -0.000004 -8.728671 10.710558 0.000007 -0.000000 -0.000000 0.000000 -0.000680 9.278137 -0.000000 0.000000 -0.000001 
0.000006 104.270477 1.554256 0.000010 0.000003 -0.000113 -0.000005 10.181587 0.131522 0.000001 -0.000003 0.000084 -0.000000 9.893967 -1.470711 0.000001 0.000000 -0.000000 -0.000000 9.220802 -1.370642 0.000000 -0.000000 -0.000000 0.000001 16.740433 -2.049030 0.000000 -0.000000 -0.000000 0.000000 9.617859 1.685014 0.000000 0.000000 0.000000 0.000002 22.037384 7.501101 0.000000 -0.000000 0.000000 -4.569968 11.014880 -2.160881 0.000008 0.000001 -0.000038 -10.592731 -0.524839 -2.231704 80.878893 79.280540 -70.448490 -27.841497 0.000028 0.000584 62.007142 111.463285 -82.824493 -28.328831 0.000009 0.000019 -0.000321 -0.000044 0.000008 -2.464832 -1.574063 2.681927 150.047467 -185.682012 170.731001 -3.215135 -1.872971 1.924404 307.008752 -9.702205 -14.820790 -2.654771 -1.528245 1.512782 475.520502 195.852792 160.073201 -2.018831 -1.151997 1.108066 -0.000005 -0.000001 0.000004 -9.108333 -0.517984 2.260262 259.815150 11.486535 -346.250785 -3.700031 -0.000124 0.001651 258.887884 10.960259 -346.714882 -2.850031 -0.000141 -0.000098 260.808615 6.393539 7.507476 -2.772162 0.000001 -0.000008 0.000001 0.000002 0.000002 -9.532527 -0.000183 0.000397 79.445899 172.477440 -170.833864 -3.700020 -0.000151 0.004150 260.729658 6.486930 7.546005 -2.950003 -0.000177 -0.001655 264.465444 5.197180 5.718297 -2.946631 -0.000003 -0.000143 0.000001 0.000000 -0.000000 -9.103620 -0.043202 -1.864708 81.352478 174.524119 -173.667422 -3.379284 -0.000177 -0.000638 262.496983 2.520111 2.890007 -2.889720 -0.000171 0.000751 264.707369 1.739457 1.951443 -2.638815 -0.000014 0.000951 0.000001 0.000001 -0.000001 -8.076679 -0.486855 -3.805889 84.919653 174.767903 -174.402720 -3.599991 -0.000226 -0.003385 266.622199 -0.698940 -1.078642 -2.099955 -0.000212 -0.005377 266.933355 -3.151701 -3.548741 -2.115774 -0.000026 -0.003679 0.000000 0.000001 -0.000004 4.570446 11.014691 -2.160851 -0.000018 0.000010 -0.000021 10.592528 -0.524585 -2.232359 67.775072 -81.177365 59.836589 27.841726 -0.000074 -0.000097 59.611357 -107.306336 75.800770 28.328833 -0.000029 0.000025 0.000020 -0.000089 -0.000000 2.466151 -1.576191 2.681824 147.800062 178.438637 -171.270094 3.217828 -1.871972 1.916557 123.290870 162.036307 -163.286204 2.656051 -1.528753 1.514620 -62.005864 18.350435 19.214007 2.020905 -1.154081 1.115145 0.000000 0.000003 0.000006 9.109281 -0.517804 2.260098 76.677008 -169.874427 167.226486 3.699957 0.000206 -0.000102 255.131881 -9.698020 -12.602748 2.849957 0.000238 0.000597 254.452550 -7.685005 -10.102687 2.774888 -0.000015 -0.000024 0.000002 0.000000 -0.000000 9.533363 0.000272 0.000269 75.168288 -172.057957 -190.299684 3.699966 0.000212 0.000045 254.224750 -7.235843 -9.551216 2.949981 0.000204 0.000181 255.879978 -6.616193 -8.483329 2.952868 -0.000048 0.000064 -0.000003 0.000000 -0.000001 9.104498 -0.042807 -1.864838 75.141664 -173.112019 171.051979 3.149991 0.000234 0.000293 254.603388 -4.674079 -6.134606 2.949972 0.000217 0.000275 258.489766 -4.470655 -5.473081 2.644310 0.000016 0.000051 -0.000000 -0.000001 -0.000000 8.077743 -0.486636 -3.806003 -103.451206 -8.580233 -11.356040 3.599948 0.000244 0.014972 260.475548 -2.987143 -3.999479 2.099990 0.000203 0.007953 263.333272 -0.827165 -1.376232 2.125496 -0.000033 0.007524 -0.000002 -0.000000 0.000000 -8.207786 -6.751667 -1.599560 -0.077001 -0.000003 0.000080 -0.000002 -44.370110 0.345938 0.153719 -0.000000 -0.000000 0.000000 -44.423679 -3.043532 -0.076700 0.000000 -0.000002 -0.000006 -8.728667 10.710559 -0.000009 -0.000000 -0.000000 -0.000001 -0.000679 9.278123 0.000000 -0.000000 -0.000000 8.207792 -6.751710 -1.599556 -0.074518 -0.000003 0.000081 -0.000002 -44.370014 0.346960 0.148822 0.000002 0.000000 -0.000001 -44.423664 -3.044403 -0.074314 0.000000 -0.000002 -0.000004 -8.728671 10.710558 0.000007 -0.000000 -0.000000 0.000000 -0.000680 9.278137 -0.000000 0.000000 -0.000001 
